<svg width="195" height="60" viewBox="0 0 195 60" fill="none" xmlns="http://www.w3.org/2000/svg">
<rect width="195" height="60" fill="white"/>
<circle cx="40" cy="30" r="20" fill="black"/>
<path d="M33.5294 39.1506L27.0391 32.6282L28.6616 30.9976L33.5294 35.8894L39.7859 21.2L43.8084 25.2306L33.5294 39.1506Z" fill="white"/>
<path d="M42.8106 39.1812L36.3203 32.6588L37.9429 31.0282L42.8106 35.92L49.0671 21.2306L53.0897 25.2612L42.8106 39.1812Z" fill="white"/>
<path d="M71.536 29.78C71.536 30.804 71.696 31.7533 72.016 32.628C72.336 33.4813 72.784 34.2173 73.36 34.836C73.9573 35.4333 74.6613 35.9027 75.472 36.244C76.304 36.5853 77.2107 36.756 78.192 36.756C79.4293 36.756 80.5387 36.4787 81.52 35.924C82.5013 35.3693 83.2907 34.5587 83.888 33.492L87.696 35.604C86.736 37.268 85.424 38.5587 83.76 39.476C82.1173 40.372 80.2613 40.82 78.192 40.82C76.5707 40.82 75.088 40.5533 73.744 40.02C72.4 39.4653 71.2373 38.6973 70.256 37.716C69.296 36.7347 68.5387 35.572 67.984 34.228C67.4507 32.884 67.184 31.4013 67.184 29.78C67.184 28.1587 67.4507 26.676 67.984 25.332C68.5387 23.9667 69.296 22.804 70.256 21.844C71.2373 20.8627 72.4 20.1053 73.744 19.572C75.088 19.0173 76.5707 18.74 78.192 18.74C80.2613 18.74 82.1173 19.1987 83.76 20.116C85.424 21.012 86.736 22.292 87.696 23.956L83.888 26.068C83.2907 25.0013 82.5013 24.1907 81.52 23.636C80.5387 23.0813 79.4293 22.804 78.192 22.804C77.2107 22.804 76.304 22.9747 75.472 23.316C74.6613 23.6573 73.9573 24.1373 73.36 24.756C72.784 25.3533 72.336 26.0893 72.016 26.964C71.696 27.8173 71.536 28.756 71.536 29.78ZM89.3595 32.82C89.3595 31.6467 89.5515 30.5693 89.9355 29.588C90.3408 28.6067 90.9062 27.764 91.6315 27.06C92.3568 26.356 93.2102 25.812 94.1915 25.428C95.1942 25.0227 96.3035 24.82 97.5195 24.82C98.7142 24.82 99.8128 25.0227 100.816 25.428C101.818 25.812 102.672 26.356 103.376 27.06C104.101 27.764 104.656 28.6067 105.04 29.588C105.445 30.5693 105.648 31.6467 105.648 32.82C105.648 33.972 105.445 35.0387 105.04 36.02C104.634 36.98 104.069 37.8227 103.344 38.548C102.618 39.252 101.754 39.8067 100.752 40.212C99.7702 40.6173 98.6928 40.82 97.5195 40.82C96.3035 40.82 95.1942 40.628 94.1915 40.244C93.1888 39.8387 92.3248 39.284 91.5995 38.58C90.8955 37.876 90.3408 37.0333 89.9355 36.052C89.5515 35.0707 89.3595 33.9933 89.3595 32.82ZM93.3915 32.82C93.3915 34.1 93.7648 35.124 94.5115 35.892C95.2795 36.66 96.2822 37.044 97.5195 37.044C98.7355 37.044 99.7168 36.66 100.464 35.892C101.232 35.1027 101.616 34.0787 101.616 32.82C101.616 31.54 101.232 30.516 100.464 29.748C99.7168 28.98 98.7355 28.596 97.5195 28.596C96.2822 28.596 95.2795 28.98 94.5115 29.748C93.7648 30.516 93.3915 31.54 93.3915 32.82ZM117.496 24.82V29.108H116.664C115.277 29.108 114.189 29.5133 113.4 30.324C112.632 31.1133 112.248 32.2227 112.248 33.652V40.5H108.216V25.14H112.248V28.756C112.547 27.54 113.133 26.58 114.008 25.876C114.904 25.172 115.96 24.82 117.176 24.82H117.496ZM128.895 24.82V29.108H128.063C126.676 29.108 125.588 29.5133 124.799 30.324C124.031 31.1133 123.647 32.2227 123.647 33.652V40.5H119.615V25.14H123.647V28.756C123.945 27.54 124.532 26.58 125.407 25.876C126.303 25.172 127.359 24.82 128.575 24.82H128.895ZM129.681 32.82C129.681 31.6467 129.873 30.5693 130.257 29.588C130.641 28.6067 131.185 27.764 131.889 27.06C132.593 26.356 133.435 25.812 134.417 25.428C135.398 25.0227 136.475 24.82 137.649 24.82C138.801 24.82 139.857 25.012 140.817 25.396C141.777 25.78 142.598 26.324 143.281 27.028C143.963 27.732 144.497 28.5747 144.881 29.556C145.265 30.516 145.457 31.572 145.457 32.724C145.457 32.98 145.446 33.2253 145.425 33.46C145.403 33.6947 145.371 33.9293 145.329 34.164H133.809C134.022 35.188 134.491 36.0093 135.217 36.628C135.963 37.2253 136.881 37.524 137.969 37.524C138.737 37.524 139.462 37.364 140.145 37.044C140.849 36.7027 141.435 36.2547 141.905 35.7L144.529 37.876C143.782 38.8147 142.833 39.54 141.681 40.052C140.55 40.564 139.313 40.82 137.969 40.82C136.731 40.82 135.601 40.628 134.577 40.244C133.574 39.8387 132.71 39.284 131.985 38.58C131.259 37.876 130.694 37.0333 130.289 36.052C129.883 35.0707 129.681 33.9933 129.681 32.82ZM141.553 31.572C141.382 30.5053 140.966 29.6627 140.305 29.044C139.643 28.4253 138.79 28.116 137.745 28.116C136.678 28.116 135.793 28.4253 135.089 29.044C134.406 29.6627 133.979 30.5053 133.809 31.572H141.553ZM147.111 32.82C147.111 31.6467 147.303 30.5693 147.687 29.588C148.071 28.6067 148.615 27.764 149.319 27.06C150.023 26.356 150.855 25.812 151.815 25.428C152.796 25.0227 153.873 24.82 155.047 24.82C156.583 24.82 157.959 25.1613 159.175 25.844C160.391 26.5053 161.329 27.4653 161.991 28.724L158.439 30.612C158.119 29.972 157.66 29.4813 157.063 29.14C156.487 28.7773 155.815 28.596 155.047 28.596C153.895 28.596 152.956 28.98 152.231 29.748C151.505 30.516 151.143 31.54 151.143 32.82C151.143 34.1 151.505 35.124 152.231 35.892C152.956 36.66 153.895 37.044 155.047 37.044C155.815 37.044 156.487 36.8733 157.063 36.532C157.66 36.1693 158.119 35.668 158.439 35.028L161.991 36.916C161.329 38.1747 160.391 39.1453 159.175 39.828C157.959 40.4893 156.583 40.82 155.047 40.82C153.873 40.82 152.796 40.628 151.815 40.244C150.855 39.8387 150.023 39.284 149.319 38.58C148.615 37.876 148.071 37.0333 147.687 36.052C147.303 35.0707 147.111 33.9933 147.111 32.82ZM165.399 20.98H169.463V25.14H173.335V28.82H169.463V33.62C169.463 34.7293 169.687 35.5293 170.135 36.02C170.583 36.4893 171.351 36.724 172.439 36.724H173.335V40.5H172.439C170.05 40.5 168.279 39.9453 167.127 38.836C165.975 37.7053 165.399 35.9667 165.399 33.62V28.82H163.159V25.14H165.399V20.98Z" fill="black"/>
</svg>
