<svg width="162" height="42" viewBox="0 0 162 42" fill="none" xmlns="http://www.w3.org/2000/svg">
<path d="M21.0323 42C32.6481 42 42.0645 32.598 42.0645 21C42.0645 9.40202 32.6481 0 21.0323 0C9.41646 0 0 9.40202 0 21C0 32.598 9.41646 42 21.0323 42Z" fill="white"/>
<path d="M14.2286 30.6083L7.40332 23.7598L9.10965 22.0477L14.2286 27.1841L20.808 11.7602L25.0382 15.9923L14.2286 30.6083Z" fill="#1B1B1B"/>
<path d="M23.9879 30.6401L17.1626 23.7916L18.8689 22.0794L23.9879 27.2158L30.5673 11.7921L34.7975 16.0242L23.9879 30.6401Z" fill="#1B1B1B"/>
<path d="M54.1958 20.769C54.1958 21.8442 54.364 22.841 54.7005 23.7594C55.0371 24.6554 55.5082 25.4282 56.1139 26.0778C56.742 26.705 57.4824 27.1978 58.3349 27.5562C59.2099 27.9146 60.1634 28.0938 61.1953 28.0938C62.4965 28.0938 63.6631 27.8026 64.6951 27.2202C65.727 26.6378 66.5572 25.7866 67.1853 24.6666L71.1898 26.8842C70.1803 28.6314 68.8006 29.9866 67.0507 30.9498C65.3232 31.8906 63.3714 32.361 61.1953 32.361C59.4903 32.361 57.9311 32.081 56.5177 31.521C55.1044 30.9386 53.8816 30.1322 52.8497 29.1018C51.8401 28.0714 51.0438 26.8506 50.4604 25.4394C49.8996 24.0282 49.6191 22.4714 49.6191 20.769C49.6191 19.0666 49.8996 17.5098 50.4604 16.0986C51.0438 14.665 51.8401 13.4442 52.8497 12.4362C53.8816 11.4058 55.1044 10.6106 56.5177 10.0506C57.9311 9.4682 59.4903 9.177 61.1953 9.177C63.3714 9.177 65.3232 9.65861 67.0507 10.6218C68.8006 11.5626 70.1803 12.9066 71.1898 14.6538L67.1853 16.8714C66.5572 15.7514 65.727 14.9002 64.6951 14.3178C63.6631 13.7354 62.4965 13.4442 61.1953 13.4442C60.1634 13.4442 59.2099 13.6234 58.3349 13.9818C57.4824 14.3402 56.742 14.8442 56.1139 15.4938C55.5082 16.121 55.0371 16.8938 54.7005 17.8122C54.364 18.7082 54.1958 19.6938 54.1958 20.769ZM72.9392 23.961C72.9392 22.729 73.1411 21.5978 73.5449 20.5674C73.9711 19.537 74.5657 18.6522 75.3284 17.913C76.0912 17.1738 76.9886 16.6026 78.0206 16.1994C79.075 15.7738 80.2416 15.561 81.5203 15.561C82.7767 15.561 83.932 15.7738 84.9865 16.1994C86.0409 16.6026 86.9383 17.1738 87.6786 17.913C88.4413 18.6522 89.0247 19.537 89.4285 20.5674C89.8547 21.5978 90.0679 22.729 90.0679 23.961C90.0679 25.1706 89.8547 26.2906 89.4285 27.321C89.0023 28.329 88.4077 29.2138 87.6449 29.9754C86.8822 30.7146 85.9736 31.297 84.9192 31.7226C83.8872 32.1482 82.7542 32.361 81.5203 32.361C80.2416 32.361 79.075 32.1594 78.0206 31.7562C76.9661 31.3306 76.0575 30.7482 75.2948 30.009C74.5545 29.2698 73.9711 28.385 73.5449 27.3546C73.1411 26.3242 72.9392 25.193 72.9392 23.961ZM77.1793 23.961C77.1793 25.305 77.5719 26.3802 78.3571 27.1866C79.1647 27.993 80.2192 28.3962 81.5203 28.3962C82.7991 28.3962 83.8311 27.993 84.6163 27.1866C85.4239 26.3578 85.8278 25.2826 85.8278 23.961C85.8278 22.617 85.4239 21.5418 84.6163 20.7354C83.8311 19.929 82.7991 19.5258 81.5203 19.5258C80.2192 19.5258 79.1647 19.929 78.3571 20.7354C77.5719 21.5418 77.1793 22.617 77.1793 23.961ZM102.528 15.561V20.0634H101.653C100.195 20.0634 99.0505 20.489 98.2205 21.3402C97.4128 22.169 97.009 23.3338 97.009 24.8346V32.025H92.7689V15.897H97.009V19.6938C97.3231 18.417 97.94 17.409 98.8599 16.6698C99.8021 15.9306 100.913 15.561 102.191 15.561H102.528ZM114.515 15.561V20.0634H113.64C112.182 20.0634 111.038 20.489 110.208 21.3402C109.4 22.169 108.996 23.3338 108.996 24.8346V32.025H104.756V15.897H108.996V19.6938C109.31 18.417 109.927 17.409 110.847 16.6698C111.789 15.9306 112.9 15.561 114.179 15.561H114.515ZM115.342 23.961C115.342 22.729 115.544 21.5978 115.948 20.5674C116.351 19.537 116.923 18.6522 117.664 17.913C118.404 17.1738 119.29 16.6026 120.322 16.1994C121.354 15.7738 122.486 15.561 123.721 15.561C124.933 15.561 126.043 15.7626 127.053 16.1658C128.062 16.569 128.925 17.1402 129.644 17.8794C130.361 18.6186 130.922 19.5034 131.326 20.5338C131.73 21.5418 131.932 22.6506 131.932 23.8602C131.932 24.129 131.92 24.3866 131.898 24.633C131.875 24.8794 131.842 25.1258 131.797 25.3722H119.683C119.907 26.4474 120.4 27.3098 121.164 27.9594C121.948 28.5866 122.913 28.9002 124.058 28.9002C124.865 28.9002 125.628 28.7322 126.346 28.3962C127.086 28.0378 127.702 27.5674 128.197 26.985L130.956 29.2698C130.171 30.2554 129.173 31.017 127.961 31.5546C126.772 32.0922 125.471 32.361 124.058 32.361C122.756 32.361 121.567 32.1594 120.49 31.7562C119.436 31.3306 118.527 30.7482 117.765 30.009C117.001 29.2698 116.407 28.385 115.981 27.3546C115.554 26.3242 115.342 25.193 115.342 23.961ZM127.827 22.6506C127.647 21.5306 127.209 20.6458 126.514 19.9962C125.818 19.3466 124.921 19.0218 123.822 19.0218C122.7 19.0218 121.769 19.3466 121.029 19.9962C120.311 20.6458 119.862 21.5306 119.683 22.6506H127.827ZM133.671 23.961C133.671 22.729 133.873 21.5978 134.277 20.5674C134.681 19.537 135.253 18.6522 135.993 17.913C136.734 17.1738 137.609 16.6026 138.618 16.1994C139.65 15.7738 140.782 15.561 142.017 15.561C143.632 15.561 145.079 15.9194 146.358 16.6362C147.637 17.3306 148.623 18.3386 149.319 19.6602L145.584 21.6426C145.248 20.9706 144.765 20.4554 144.137 20.097C143.531 19.7162 142.825 19.5258 142.017 19.5258C140.806 19.5258 139.818 19.929 139.056 20.7354C138.292 21.5418 137.912 22.617 137.912 23.961C137.912 25.305 138.292 26.3802 139.056 27.1866C139.818 27.993 140.806 28.3962 142.017 28.3962C142.825 28.3962 143.531 28.217 144.137 27.8586C144.765 27.4778 145.248 26.9514 145.584 26.2794L149.319 28.2618C148.623 29.5834 147.637 30.6026 146.358 31.3194C145.079 32.0138 143.632 32.361 142.017 32.361C140.782 32.361 139.65 32.1594 138.618 31.7562C137.609 31.3306 136.734 30.7482 135.993 30.009C135.253 29.2698 134.681 28.385 134.277 27.3546C133.873 26.3242 133.671 25.193 133.671 23.961ZM152.903 11.529H157.177V15.897H161.249V19.761H157.177V24.801C157.177 25.9658 157.413 26.8058 157.884 27.321C158.355 27.8138 159.162 28.0602 160.307 28.0602H161.249V32.025H160.307C157.794 32.025 155.932 31.4426 154.72 30.2778C153.509 29.0906 152.903 27.265 152.903 24.801V19.761H150.548V15.897H152.903V11.529Z" fill="white"/>
</svg>
