<svg width="79" height="78" viewBox="0 0 79 78" fill="none" xmlns="http://www.w3.org/2000/svg">
<path opacity="0.2" d="M68.75 39C68.75 44.7851 67.0345 50.4403 63.8205 55.2504C60.6065 60.0606 56.0382 63.8096 50.6935 66.0235C45.3488 68.2373 39.4676 68.8166 33.7936 67.688C28.1197 66.5594 22.9078 63.7736 18.8171 59.6829C14.7265 55.5922 11.9407 50.3803 10.812 44.7064C9.68343 39.0324 10.2627 33.1513 12.4765 27.8065C14.6904 22.4618 18.4394 17.8935 23.2496 14.6795C28.0597 11.4655 33.7149 9.75 39.5 9.75C47.2576 9.75 54.6974 12.8317 60.1829 18.3171C65.6683 23.8026 68.75 31.2424 68.75 39Z" fill="#F7CF3D"/>
<path d="M71.1875 39C71.1875 45.2672 69.3291 51.3937 65.8472 56.6046C62.3653 61.8156 57.4164 65.8771 51.6263 68.2754C45.8362 70.6738 39.4649 71.3013 33.3181 70.0786C27.1713 68.856 21.5251 65.838 17.0936 61.4065C12.662 56.9749 9.64405 51.3287 8.42138 45.1819C7.19871 39.0352 7.82623 32.6639 10.2246 26.8737C12.6229 21.0836 16.6844 16.1347 21.8954 12.6528C27.1064 9.17094 33.2328 7.3125 39.5 7.3125C47.9013 7.32137 55.956 10.6627 61.8967 16.6034C67.8373 22.544 71.1786 30.5987 71.1875 39ZM66.3125 39C66.3125 33.697 64.74 28.5131 61.7938 24.1038C58.8476 19.6945 54.6601 16.2579 49.7607 14.2285C44.8614 12.1991 39.4703 11.6681 34.2692 12.7027C29.068 13.7373 24.2905 16.2909 20.5407 20.0407C16.7909 23.7905 14.2373 28.568 13.2027 33.7691C12.1681 38.9703 12.6991 44.3614 14.7285 49.2607C16.7579 54.16 20.1945 58.3476 24.6038 61.2938C29.0131 64.24 34.197 65.8125 39.5 65.8125C46.6087 65.8044 53.4238 62.977 58.4504 57.9504C63.477 52.9238 66.3045 46.1086 66.3125 39Z" fill="#F7CF3D"/>
<path d="M36.58 43.68L35.5 26H42.62L41.54 43.68H36.58ZM35.78 46.4H42.34V52.8H35.78V46.4Z" fill="#F7CF3D"/>
</svg>
