<svg width="78" height="78" viewBox="0 0 78 78" fill="none" xmlns="http://www.w3.org/2000/svg">
<path opacity="0.2" d="M68.25 39C68.25 44.7851 66.5345 50.4403 63.3205 55.2504C60.1065 60.0606 55.5382 63.8096 50.1935 66.0235C44.8488 68.2373 38.9676 68.8166 33.2936 67.688C27.6197 66.5594 22.4078 63.7736 18.3171 59.6829C14.2265 55.5922 11.4407 50.3803 10.312 44.7064C9.18343 39.0324 9.76267 33.1513 11.9765 27.8065C14.1904 22.4618 17.9394 17.8935 22.7496 14.6795C27.5597 11.4655 33.2149 9.75 39 9.75C46.7576 9.75 54.1974 12.8317 59.6829 18.3171C65.1683 23.8026 68.25 31.2424 68.25 39Z" fill="#ED1010"/>
<path d="M70.6875 39C70.6875 45.2672 68.8291 51.3937 65.3472 56.6046C61.8653 61.8156 56.9164 65.8771 51.1263 68.2754C45.3362 70.6738 38.9649 71.3013 32.8181 70.0786C26.6713 68.856 21.0251 65.838 16.5936 61.4065C12.162 56.9749 9.14405 51.3287 7.92138 45.1819C6.69871 39.0352 7.32623 32.6639 9.72458 26.8737C12.1229 21.0836 16.1844 16.1347 21.3954 12.6528C26.6064 9.17094 32.7328 7.3125 39 7.3125C47.4013 7.32137 55.456 10.6627 61.3967 16.6034C67.3373 22.544 70.6786 30.5987 70.6875 39ZM65.8125 39C65.8125 33.697 64.24 28.5131 61.2938 24.1038C58.3476 19.6945 54.1601 16.2579 49.2607 14.2285C44.3614 12.1991 38.9703 11.6681 33.7692 12.7027C28.568 13.7373 23.7905 16.2909 20.0407 20.0407C16.2909 23.7905 13.7373 28.568 12.7027 33.7691C11.6681 38.9703 12.1991 44.3614 14.2285 49.2607C16.2579 54.16 19.6945 58.3476 24.1038 61.2938C28.5131 64.24 33.697 65.8125 39 65.8125C46.1087 65.8044 52.9238 62.977 57.9504 57.9504C62.977 52.9238 65.8045 46.1086 65.8125 39Z" fill="#ED1010"/>
<path d="M43.5491 39L50.372 32.177C51.2093 31.3398 51.2093 29.9823 50.372 29.1443L48.8557 27.628C48.0184 26.7907 46.6609 26.7907 45.823 27.628L39 34.4509L32.177 27.628C31.3398 26.7907 29.9823 26.7907 29.1443 27.628L27.628 29.1443C26.7907 29.9816 26.7907 31.3391 27.628 32.177L34.4509 39L27.628 45.823C26.7907 46.6602 26.7907 48.0177 27.628 48.8557L29.1443 50.372C29.9816 51.2093 31.3398 51.2093 32.177 50.372L39 43.5491L45.823 50.372C46.6602 51.2093 48.0184 51.2093 48.8557 50.372L50.372 48.8557C51.2093 48.0184 51.2093 46.6609 50.372 45.823L43.5491 39Z" fill="#ED1010"/>
</svg>
