<svg width="24" height="24" viewBox="0 0 24 24" fill="none" xmlns="http://www.w3.org/2000/svg">
<path d="M22.3929 8.01986L12.8042 5.11857C12.2817 4.96048 11.718 4.96048 11.1958 5.11857L1.60689 8.01986C0.797702 8.26462 0.797702 9.31849 1.60689 9.56326L3.27856 10.069C2.91177 10.5156 2.68627 11.0603 2.66393 11.6568C2.3329 11.8437 2.09983 12.1808 2.09983 12.5834C2.09983 12.9483 2.29508 13.2554 2.57627 13.4517L1.69867 17.3409C1.62236 17.6791 1.88361 18 2.23527 18H4.16406C4.51606 18 4.77731 17.6791 4.701 17.3409L3.8234 13.4517C4.10459 13.2554 4.29984 12.9483 4.29984 12.5834C4.29984 12.1917 4.07743 11.864 3.76153 11.6737C3.78765 11.1652 4.05165 10.7156 4.47275 10.4306L11.1955 12.4649C11.5069 12.559 12.1044 12.6765 12.8039 12.4649L22.3929 9.5636C23.2024 9.31849 23.2024 8.26496 22.3929 8.01986ZM13.127 13.5005C12.1463 13.797 11.3106 13.6332 10.8724 13.5005L5.88728 11.9923L5.39985 15.8333C5.39985 17.0301 8.35473 18 11.9999 18C15.645 18 18.5999 17.0301 18.5999 15.8333L18.1125 11.9919L13.127 13.5005Z" fill="#C5C5C7"/>
</svg>
